#!OML:ASF Y:\EmotionMaleHayes\Project 1\Capture day 1\Session 1\Male1.ASF
:FULLY-SPECIFIED
:DEGREES
437
root -4.22647 16.5877 1.57644 120.431 100.758 122.615
lowerback 5.6275 3.96519 9.58152
upperback 1.07316 5.91817 1.22904
thorax -1.19937 2.95286 -4.40824
lowerneck -21.2912 -4.32548 -3.10952
upperneck 15.767 -5.06036 0.581449
head 8.49345 -2.51226 0.0242968
rclavicle 7.71533e-014 -1.19271e-015
rhumerus -21.9623 21.5291 -90.0878
rradius 51.2105
rwrist -4.35707
rhand -8.75759 -33.3462
rfingers 7.12502
rthumb 17.1798 -62.6067
lclavicle 7.71533e-014 -1.19271e-015
lhumerus -49.4229 1.01204 85.4871
lradius 27.9842
lwrist -5.4335
lhand -11.0526 -22.5042
lfingers 7.12502
lthumb 14.9698 6.93478
rfemur 20.2126 -5.81599 29.8317
rtibia 5.89695
rfoot -23.0804 5.04333
rtoes 9.94261
lfemur -18.4809 5.79626 -5.55085
ltibia 2.71412
lfoot -6.11252 10.3286
ltoes 6.12886
438
root -4.0972 16.5731 1.56938 122.205 100.716 124.16
lowerback 5.24611 4.07655 9.42091
upperback 1.10408 6.00278 1.04053
thorax -0.937215 3.0074 -4.48204
lowerneck -21.3229 -4.43588 -3.11969
upperneck 15.639 -5.24192 0.752318
head 8.4635 -2.57995 0.0598134
rclavicle 4.42296e-014 -1.94809e-014
rhumerus -21.9389 21.4592 -90.3386
rradius 51.3437
rwrist -3.94551
rhand -8.72871 -32.7741
rfingers 7.12502
rthumb 17.2076 -62.0322
lclavicle 4.42296e-014 -1.94809e-014
lhumerus -49.1626 1.08097 85.3817
lradius 27.8532
lwrist -5.67916
lhand -10.4721 -22.735
lfingers 7.12502
lthumb 15.5289 6.66145
rfemur 20.3708 -5.24681 29.6955
rtibia 6.07271
rfoot -23.1155 5.1284
rtoes 10.8221
lfemur -18.3815 6.04725 -5.90382
ltibia 2.69123
lfoot -5.93649 10.2035
ltoes 5.46541
439
root -3.96521 16.5602 1.56115 123.6 100.588 125.368
lowerback 5.2525 4.11332 9.14415
upperback 0.902338 6.0409 0.895318
thorax -1.15839 3.00793 -4.49392
lowerneck -21.4291 -4.5154 -3.16897
upperneck 15.8658 -5.34624 0.810307
head 8.56414 -2.62427 0.0679773
rclavicle -4.99446e-015 -3.26007e-014
rhumerus -22.5375 21.682 -90.7013
rradius 51.8125
rwrist -3.98961
rhand -8.94811 -32.5245
rfingers 7.12502
rthumb 16.9964 -61.801
lclavicle -4.99446e-015 -3.26007e-014
lhumerus -49.352 1.06039 85.4045
lradius 27.7761
lwrist -6.01547
lhand -10.3249 -22.8745
lfingers 7.12502
lthumb 15.6708 6.51087
rfemur 20.5827 -4.6255 29.5966
rtibia 6.24231
rfoot -23.2947 4.85713
rtoes 11.2962
lfemur -18.2541 6.10554 -6.30478
ltibia 2.89598
lfoot -5.62245 10.0244
ltoes 5.12095
440
root -3.8324 16.5501 1.54954 124.181 100.663 125.802
lowerback 4.63896 4.12716 9.15084
upperback 1.01136 5.98567 0.900485
thorax -0.709405 3.00455 -4.42969
lowerneck -20.9177 -4.5743 -3.42145
upperneck 15.4925 -5.40123 0.989039
head 8.36377 -2.65071 0.176004
rclavicle -2.34069e-014 2.34566e-014
rhumerus -22.7857 22.0189 -90.8471
rradius 52.2422
rwrist -4.17087
rhand -8.68812 -33.2227
rfingers 7.12502
rthumb 17.2466 -62.4774
lclavicle -2.34069e-014 2.34566e-014
lhumerus -49.2169 1.22603 85.5627
lradius 27.6629
lwrist -6.32862
lhand -10.1839 -22.8546
lfingers 7.12502
lthumb 15.8066 6.52008
rfemur 20.8197 -4.16244 29.7169
rtibia 6.36295
rfoot -23.3428 4.47667
rtoes 11.4957
lfemur -18.0935 6.14376 -6.40517
ltibia 3.3016
lfoot -5.35692 9.85706
ltoes 4.73503
441
root -3.69462 16.5402 1.53555 123.865 100.667 125.395
lowerback 5.15033 4.0689 9.26788
upperback 0.644952 5.98396 0.726765
thorax -1.34711 2.95988 -4.73901
lowerneck -21.3782 -4.67055 -3.30878
upperneck 16.1007 -5.56413 1.01869
head 8.65078 -2.71167 0.128833
rclavicle -4.62423e-014 -4.13472e-014
rhumerus -23.5965 21.7486 -91.4623
rradius 52.5721
rwrist -4.03008
rhand -8.24544 -33.4607
rfingers 7.12502
rthumb 17.6727 -62.6775
lclavicle -4.62423e-014 -4.13472e-014
lhumerus -49.62 0.853218 85.5847
lradius 27.7595
lwrist -6.27791
lhand -9.94705 -22.6777
lfingers 7.12502
lthumb 16.0346 6.67878
rfemur 21.2021 -4.17774 29.6586
rtibia 6.3364
rfoot -23.1568 4.14954
rtoes 9.47231
lfemur -17.8929 6.11777 -6.54345
ltibia 3.6531
lfoot -4.56978 9.86333
ltoes 4.93091
442
root -3.55594 16.5307 1.52643 124.428 100.647 125.9
lowerback 4.37115 4.00997 9.2047
upperback 1.12964 5.78983 0.656527
thorax -0.432625 2.92327 -4.67781
lowerneck -21.9419 -4.65917 -3.31981
upperneck 15.9021 -5.53329 1.07318
head 8.68007 -2.68889 0.143817
rclavicle -3.67006e-014 -1.35174e-014
rhumerus -22.9467 22.1957 -91.5073
rradius 52.4887
rwrist -4.04021
rhand -8.36849 -32.721
rfingers 7.12502
rthumb 17.5543 -61.9484
lclavicle -3.67006e-014 -1.35174e-014
lhumerus -48.7738 1.19939 85.5445
lradius 27.6272
lwrist -6.4967
lhand -9.76142 -22.5595
lfingers 7.12502
lthumb 16.2134 6.78251
rfemur 21.6551 -4.1816 29.4107
rtibia 6.30481
rfoot -23.0256 4.14377
rtoes 7.29443
lfemur -17.5036 6.02323 -6.69894
ltibia 3.53491
lfoot -2.81622 10.5157
ltoes 6.53626
